G04*
G04 #@! TF.GenerationSoftware,Altium Limited,Altium Designer,24.4.1 (13)*
G04*
G04 Layer_Physical_Order=2*
G04 Layer_Color=16711680*
%FSLAX44Y44*%
%MOMM*%
G71*
G04*
G04 #@! TF.SameCoordinates,E03DAD19-A1D4-479A-945F-AA05C0C5925B*
G04*
G04*
G04 #@! TF.FilePolarity,Positive*
G04*
G01*
G75*
%ADD25C,1.3000*%
%ADD26R,1.3000X1.3000*%
%ADD28C,1.2000*%
%ADD29R,1.2000X1.2000*%
%ADD30R,1.6000X1.6000*%
%ADD31C,1.6000*%
%ADD50C,1.3500*%
%ADD51R,1.3500X1.3500*%
%ADD62C,0.7620*%
%ADD63R,1.5000X1.5000*%
%ADD64C,1.5000*%
%ADD65C,1.5240*%
%ADD66C,2.1000*%
%ADD67C,1.2880*%
%ADD68R,1.2880X1.2880*%
%ADD69R,1.8000X1.8000*%
%ADD70C,1.8000*%
%ADD71R,1.5240X1.5240*%
%ADD72R,1.8450X1.8450*%
%ADD73C,1.8450*%
%ADD74R,1.9050X1.9050*%
%ADD75C,1.9050*%
%ADD76C,1.7780*%
%ADD77R,1.7780X1.7780*%
%ADD78C,1.1900*%
%ADD79R,1.1900X1.1900*%
%ADD80R,1.6500X1.6500*%
%ADD81C,1.6500*%
%ADD82O,3.0000X6.0000*%
%ADD83R,1.8000X1.8000*%
%ADD84C,1.7500*%
%ADD85R,1.7500X1.7500*%
%ADD86C,1.2700*%
D25*
X777080Y1739260D02*
D03*
Y1719260D02*
D03*
Y1699260D02*
D03*
Y1679260D02*
D03*
Y1659260D02*
D03*
X757080Y1739260D02*
D03*
Y1719260D02*
D03*
Y1699260D02*
D03*
Y1679260D02*
D03*
X797240Y1220780D02*
D03*
Y1200780D02*
D03*
Y1180780D02*
D03*
Y1160780D02*
D03*
Y1140780D02*
D03*
X777240Y1220780D02*
D03*
Y1200780D02*
D03*
Y1180780D02*
D03*
Y1160780D02*
D03*
D26*
X757080Y1659260D02*
D03*
X777240Y1140780D02*
D03*
D28*
X1402080Y731580D02*
D03*
D29*
Y655320D02*
D03*
D30*
X1342620Y1308100D02*
D03*
X1079270Y434340D02*
D03*
D31*
X1451380Y1308100D02*
D03*
X970510Y434340D02*
D03*
D50*
X909320Y1249362D02*
D03*
X934720D02*
D03*
X960120D02*
D03*
X985520D02*
D03*
X1010920D02*
D03*
X1036320D02*
D03*
X1061720D02*
D03*
X1087120D02*
D03*
X1112520D02*
D03*
X1137920D02*
D03*
X1163320D02*
D03*
X1188720D02*
D03*
X1214120D02*
D03*
X1239520D02*
D03*
X1264920D02*
D03*
X1290320D02*
D03*
X1315720D02*
D03*
X1341120D02*
D03*
X1366520D02*
D03*
X1391920D02*
D03*
Y1095058D02*
D03*
X1366520D02*
D03*
X1341120D02*
D03*
X1315720D02*
D03*
X1290320D02*
D03*
X1264920D02*
D03*
X1239520D02*
D03*
X1214120D02*
D03*
X1188720D02*
D03*
X1163320D02*
D03*
X1137920D02*
D03*
X1112520D02*
D03*
X1087120D02*
D03*
X1061720D02*
D03*
X1036320D02*
D03*
X1010920D02*
D03*
X985520D02*
D03*
X960120D02*
D03*
X934720D02*
D03*
D51*
X909320D02*
D03*
D62*
X890270Y1003300D02*
X970280D01*
X975658Y997922D01*
X990898D01*
X991870Y996950D01*
X1064468Y922228D02*
X1065440Y923200D01*
X1064468Y918636D02*
Y922228D01*
X1063498Y917666D02*
X1064468Y918636D01*
X1063498Y892302D02*
Y917666D01*
X1087120Y1278890D02*
X1088092Y1279862D01*
X1095023D01*
X1098370Y1283208D02*
X1205675D01*
X1095023Y1279862D02*
X1098370Y1283208D01*
X1252860Y860420D02*
X1304920D01*
X1252220Y861060D02*
X1252860Y860420D01*
X1304920D02*
X1344930Y900430D01*
X1002284Y737870D02*
Y798576D01*
X970280Y830580D02*
X1002284Y798576D01*
X1394714Y1280414D02*
X1410208D01*
X1370306D02*
X1394714D01*
X858520Y971550D02*
X1016000D01*
X978530Y709930D02*
X1186180D01*
X796290D02*
X978530D01*
X1412240Y875030D02*
Y878332D01*
X1330960Y1782140D02*
Y1791970D01*
X1460500Y571500D02*
X1488440Y599440D01*
X1604264D01*
X1609344Y604520D01*
Y655066D01*
X1596390Y668020D02*
X1609344Y655066D01*
X1542034Y790194D02*
X1555750Y803910D01*
X1472946Y790194D02*
X1542034D01*
X1457960Y805180D02*
X1472946Y790194D01*
X1137920Y1249362D02*
X1151826Y1235456D01*
X1397000D01*
X1405128Y1243584D01*
Y1270000D01*
X1394714Y1280414D02*
X1405128Y1270000D01*
X1342620Y1308100D02*
X1370306Y1280414D01*
X1243330Y1361440D02*
X1283970Y1320800D01*
X1118870Y1361440D02*
X1243330D01*
X1097280Y1339850D02*
X1118870Y1361440D01*
X1296670Y1308100D02*
X1342620D01*
X1283970Y1320800D02*
X1296670Y1308100D01*
X1546352Y693420D02*
X1596390D01*
X1493520Y692150D02*
X1546352Y693420D01*
X1493520Y805180D02*
X1507236Y818896D01*
X1576324D01*
X1591310Y803910D01*
X965454Y869950D02*
X990600D01*
X903478Y807974D02*
X965454Y869950D01*
X903478Y739140D02*
Y807974D01*
X1315720Y1095058D02*
X1328820Y1081957D01*
X1532465D01*
X1170940Y1714246D02*
Y1723720D01*
X1107694Y1651000D02*
X1170940Y1714246D01*
X1107694Y1640840D02*
Y1651000D01*
Y1640840D02*
X1111250Y1555750D01*
X1137920Y1612750D02*
X1479950D01*
X1125220Y1600050D02*
X1137920Y1612750D01*
X1125220Y1549400D02*
Y1600050D01*
X1117600Y1541780D02*
X1125220Y1549400D01*
X1014100Y1541780D02*
X1117600D01*
X917072Y1638808D02*
X1014100Y1541780D01*
X777080Y1659260D02*
X1056000D01*
X1069340Y1645920D01*
X1146810Y1555750D02*
X1162304Y1571244D01*
X1463294D01*
X1504950Y1612900D01*
X1075182Y862584D02*
X1102106Y835660D01*
X1305560D01*
X1344930Y875030D01*
X1063498Y892302D02*
X1094232Y861568D01*
X1118362D01*
X1198880Y942086D01*
X1283716D01*
X1290320Y950976D01*
X854202Y869950D02*
X914400D01*
X852932Y868680D02*
X854202Y869950D01*
X791210Y868680D02*
X852932D01*
X1282700Y426720D02*
X1480820Y228600D01*
X1572260D01*
X897128Y558800D02*
X970510Y485418D01*
Y434340D02*
Y485418D01*
X1554480Y1328420D02*
X1569830Y1313070D01*
Y1292860D02*
Y1313070D01*
X1550018Y1273048D02*
X1569830Y1292860D01*
X1475232Y1273048D02*
X1550018D01*
X1376680Y1174496D02*
X1475232Y1273048D01*
X934720Y1174496D02*
X1376680D01*
X1179974Y1013460D02*
X1198880D01*
X1138064Y1055370D02*
X1179974Y1013460D01*
X1101407Y1055370D02*
X1138064D01*
X1061720Y1095058D02*
X1101407Y1055370D01*
X1163320Y1095058D02*
X1190816Y1067562D01*
X1222248D01*
X1238758Y1051052D01*
X1267968D01*
X1332738Y986282D01*
X1388618D01*
X1435100Y939800D01*
Y793496D02*
Y939800D01*
X1389634Y748030D02*
X1435100Y793496D01*
X1389634Y667766D02*
Y748030D01*
Y667766D02*
X1402080Y655320D01*
X1475232Y1151890D02*
X1558290D01*
X1443482Y1120140D02*
X1475232Y1151890D01*
X1205675Y1283208D02*
X1239520Y1249362D01*
X1061720Y1324610D02*
X1071880Y1314450D01*
X1059180Y1324610D02*
X1061720D01*
X1056640Y1327150D02*
X1059180Y1324610D01*
X1056640Y1327150D02*
Y1367282D01*
X1066800Y1377442D01*
X1313180D01*
X1397508Y1293114D01*
X945579Y1263904D02*
X960120Y1249362D01*
X806450Y1263904D02*
X945579D01*
X785114Y1285240D02*
X806450Y1263904D01*
X1120140Y1723720D02*
X1132440Y1736020D01*
X1154100D01*
X1157840Y1732280D01*
Y1717040D02*
Y1732280D01*
X1120060Y1679260D02*
X1157840Y1717040D01*
X777080Y1679260D02*
X1120060D01*
X780542Y700278D02*
X796290Y684530D01*
X780542Y700278D02*
Y724916D01*
X792480Y736854D01*
X817880D01*
X830072Y724662D01*
X914400D01*
X921258Y731520D01*
Y811385D01*
X954423Y844550D01*
X990600D01*
X777080Y1719260D02*
X785142Y1711198D01*
X1133018D01*
X1145540Y1723720D01*
X1112520Y1791970D02*
X1132586Y1771904D01*
X1173556D01*
X1221740Y1723720D01*
X1061720Y1791970D02*
X1097280Y1756410D01*
X1163650D01*
X1196340Y1723720D01*
X777080Y1739260D02*
X784000Y1746180D01*
X1159180D01*
X1170940Y1734420D01*
Y1723720D02*
Y1734420D01*
X1327975Y1108202D02*
X1341120Y1095058D01*
X1049464Y1108202D02*
X1327975D01*
X1036320Y1095058D02*
X1049464Y1108202D01*
X942340Y1322070D02*
X964367Y1300043D01*
X977446D01*
X1004866Y1272623D01*
X1063860D01*
X1087120Y1249362D01*
X970817Y1289465D02*
X1010920Y1249362D01*
X848960Y1289465D02*
X970817D01*
X842518Y1295908D02*
X848960Y1289465D01*
X725170Y1212850D02*
X777240Y1160780D01*
X725170Y1212850D02*
Y1332992D01*
X731520Y1339342D01*
X772160D01*
X832866Y1278636D01*
X956246D01*
X985520Y1249362D01*
X1410208Y1280414D02*
X1415288Y1285494D01*
X1536954D01*
X1554480Y1303020D01*
X1430782Y1197102D02*
X1565402D01*
X1573784Y1188720D01*
Y1141984D02*
Y1188720D01*
X1558290Y1126490D02*
X1573784Y1141984D01*
X1469390Y1221740D02*
X1540447D01*
X1579990Y1261283D01*
Y1328310D01*
X1554480Y1353820D02*
X1579990Y1328310D01*
X791210Y1024890D02*
X874522Y1108202D01*
X1023176D01*
X1036320Y1095058D01*
X753872Y1104392D02*
X768604Y1119124D01*
X1342453D01*
X1366520Y1095058D01*
X1290320D02*
X1313580Y1071797D01*
X1442720D01*
X1456944Y1057573D01*
Y1000506D02*
Y1057573D01*
X1452880Y996442D02*
X1456944Y1000506D01*
X1356868Y996442D02*
X1452880D01*
X1339850Y1013460D02*
X1356868Y996442D01*
X1087120Y1095058D02*
X1113599Y1068578D01*
X1145206D01*
X1183045Y1030739D01*
X1208779D01*
X1215898Y1023620D01*
Y1005840D02*
Y1023620D01*
X1199896Y989838D02*
X1215898Y1005840D01*
X1169162Y989838D02*
X1199896D01*
X1145540Y1013460D02*
X1169162Y989838D01*
X1188720Y1095058D02*
X1203999Y1079779D01*
X1228397D01*
X1246538Y1061637D01*
X1393273D01*
X1441450Y1013460D01*
X1137920Y1095058D02*
X1191660Y1041317D01*
X1211432D01*
X1212111Y1040638D01*
X1255522D01*
X1268730Y1027430D01*
X797240Y1200780D02*
X987737D01*
X1036320Y1249362D01*
X1056640Y302260D02*
X1258316Y503936D01*
X810768Y572008D02*
X1066800D01*
X791210Y552450D02*
X810768Y572008D01*
X1097280Y422402D02*
Y432562D01*
X1087120Y412242D02*
X1097280Y422402D01*
X878078Y412242D02*
X1087120D01*
X791210Y499110D02*
X878078Y412242D01*
X1030986Y895858D02*
Y956564D01*
X1016000Y971550D02*
X1030986Y956564D01*
X1448820Y1531620D02*
X1529950Y1612750D01*
X978916Y1531620D02*
X1448820D01*
X961390Y1549146D02*
X978916Y1531620D01*
X1216430Y571500D02*
X1460500D01*
X1079270Y434340D02*
X1216430Y571500D01*
X1142175Y1270508D02*
X1163320Y1249362D01*
X1103630Y1270508D02*
X1142175D01*
X1272540Y1645920D02*
X1356360Y1729740D01*
Y1802130D01*
X1351280Y1807210D02*
X1356360Y1802130D01*
X1203960Y1807210D02*
X1351280D01*
X1188720Y1791970D02*
X1203960Y1807210D01*
X1412240Y875030D02*
X1421130D01*
X1394206Y896366D02*
X1412240Y878332D01*
X1394206Y896366D02*
Y965200D01*
X1383284Y976122D02*
X1394206Y965200D01*
X1250696Y976122D02*
X1383284D01*
X1234440Y959866D02*
X1250696Y976122D01*
X1273180Y925830D02*
X1344930D01*
X1207770Y860420D02*
X1273180Y925830D01*
X764286Y1213734D02*
X777240Y1200780D01*
X764286Y1213734D02*
Y1229360D01*
X771144Y1236218D01*
X921575D01*
X934720Y1249362D01*
X789891D02*
X909320D01*
X739140Y1300114D02*
X789891Y1249362D01*
X739140Y1300114D02*
Y1323340D01*
X993140Y1322070D02*
X1021842Y1293368D01*
X1101598D01*
X1122680Y1314450D01*
X1129030Y1320800D02*
X1207770D01*
X1122680Y1314450D02*
X1129030Y1320800D01*
X1290320Y950976D02*
X1346708D01*
X1368806Y928878D01*
Y901954D02*
Y928878D01*
Y901954D02*
X1421130Y849630D01*
X1214120Y1791970D02*
X1234186Y1771904D01*
Y1683766D02*
Y1771904D01*
X1196340Y1645920D02*
X1234186Y1683766D01*
X1107948Y874268D02*
X1115568D01*
X1268730Y1027430D01*
X791210Y971550D02*
X858520D01*
X890270Y1003300D01*
X746760Y1719260D02*
X757080D01*
X744220Y1716720D02*
X746760Y1719260D01*
X744220Y1645920D02*
Y1716720D01*
Y1645920D02*
X751332Y1638808D01*
X881380D01*
X1290320Y1766900D02*
Y1791970D01*
X1247140Y1723720D02*
X1290320Y1766900D01*
X1330960Y1791970D02*
X1341120D01*
X1272540Y1723720D02*
X1330960Y1782140D01*
X1295336Y1269746D02*
X1315720Y1249362D01*
X1284224Y1269746D02*
X1295336D01*
X1233170Y1320800D02*
X1284224Y1269746D01*
X1258570Y1320800D02*
X1290320Y1289050D01*
X1301432D01*
X1341120Y1249362D01*
X990600Y844550D02*
X1071880D01*
X1174750Y741680D01*
X1532890Y617220D02*
X1596390D01*
X1457960Y692150D02*
X1532890Y617220D01*
X1474153Y1177290D02*
X1558290D01*
X1391920Y1095058D02*
X1474153Y1177290D01*
X1454090Y731580D02*
X1493520Y692150D01*
X1402080Y731580D02*
X1454090D01*
X1336040Y530860D02*
X1455420D01*
X1496060Y571500D01*
X791210Y815340D02*
X885190D01*
X914400Y844550D01*
X777240Y1220780D02*
X797240D01*
X777240Y1140780D02*
X797240D01*
X757080Y1739260D02*
X777080D01*
X757080Y1659260D02*
X777080D01*
D63*
X1344930Y925830D02*
D03*
D64*
Y900430D02*
D03*
Y875030D02*
D03*
Y849630D02*
D03*
X1421130Y925830D02*
D03*
Y900430D02*
D03*
Y875030D02*
D03*
Y849630D02*
D03*
D65*
X1174750Y741680D02*
D03*
X1496060Y571500D02*
D03*
X1460500D02*
D03*
X1493520Y692150D02*
D03*
X1457960D02*
D03*
X1059180Y1024890D02*
D03*
X1268730Y1027430D02*
D03*
X1146810Y1555750D02*
D03*
X1111250D02*
D03*
X1591310Y803910D02*
D03*
X1555750D02*
D03*
X739140Y1323340D02*
D03*
X1493520Y805180D02*
D03*
X1457960D02*
D03*
X1469390Y1221740D02*
D03*
D66*
X1336040Y635000D02*
D03*
X1282700D02*
D03*
X1334770Y740410D02*
D03*
X1281430D02*
D03*
X1336040Y426720D02*
D03*
X1282700D02*
D03*
X1336040Y530860D02*
D03*
X1282700D02*
D03*
X791210Y499110D02*
D03*
Y552450D02*
D03*
Y815340D02*
D03*
Y868680D02*
D03*
Y971550D02*
D03*
Y1024890D02*
D03*
X1145540Y1013460D02*
D03*
X1198880D02*
D03*
D67*
X1596390Y693420D02*
D03*
Y668020D02*
D03*
Y642620D02*
D03*
D68*
Y617220D02*
D03*
D69*
X1031240Y302260D02*
D03*
X1300480Y309880D02*
D03*
X1441450Y1013460D02*
D03*
X1207770Y1320800D02*
D03*
X942340Y1322070D02*
D03*
D70*
X1056640Y302260D02*
D03*
X1082040D02*
D03*
X1325880Y309880D02*
D03*
X1351280D02*
D03*
X1558290Y1151890D02*
D03*
Y1177290D02*
D03*
X1554480Y1328420D02*
D03*
Y1303020D02*
D03*
X1390650Y1013460D02*
D03*
X1416050D02*
D03*
X1365250D02*
D03*
X1339850D02*
D03*
X1258570Y1320800D02*
D03*
X1233170D02*
D03*
X1283970D02*
D03*
X967740Y1322070D02*
D03*
X993140D02*
D03*
D71*
X1572260Y548600D02*
D03*
Y228600D02*
D03*
D72*
X796290Y659130D02*
D03*
D73*
Y684530D02*
D03*
Y709930D02*
D03*
D74*
X990600Y844550D02*
D03*
D75*
Y869950D02*
D03*
X914400D02*
D03*
Y844550D02*
D03*
D76*
X1214120Y1791970D02*
D03*
X1239520D02*
D03*
X1264920D02*
D03*
X1290320D02*
D03*
X1315720D02*
D03*
X1341120D02*
D03*
X1188720D02*
D03*
X1163320D02*
D03*
X1137920D02*
D03*
X1112520D02*
D03*
X1087120D02*
D03*
D77*
X1061720D02*
D03*
D78*
X1069340Y1723720D02*
D03*
X1094740D02*
D03*
X1120140D02*
D03*
X1145540D02*
D03*
X1170940D02*
D03*
X1196340D02*
D03*
X1221740D02*
D03*
X1247140D02*
D03*
X1272540D02*
D03*
X1297940D02*
D03*
Y1645920D02*
D03*
X1272540D02*
D03*
X1247140D02*
D03*
X1221740D02*
D03*
X1196340D02*
D03*
X1170940D02*
D03*
X1145540D02*
D03*
X1120140D02*
D03*
X1094740D02*
D03*
D79*
X1069340D02*
D03*
D80*
X1529950Y1612750D02*
D03*
D81*
X1479950D02*
D03*
X1529950Y1757750D02*
D03*
X1504950Y1612900D02*
D03*
X1479950Y1757750D02*
D03*
D82*
X1561950Y1682750D02*
D03*
X1447950D02*
D03*
D83*
X1558290Y1126490D02*
D03*
X1554480Y1353820D02*
D03*
D84*
X1122680Y1339850D02*
D03*
X1097280D02*
D03*
X1071880Y1314450D02*
D03*
X1097280D02*
D03*
X1122680D02*
D03*
D85*
X1071880Y1339850D02*
D03*
D86*
X991870Y996950D02*
D03*
X1065440Y923200D02*
D03*
X1087120Y1278890D02*
D03*
X1252220Y861060D02*
D03*
X970280Y830580D02*
D03*
X903478Y739140D02*
D03*
X1532465Y1081957D02*
D03*
X917072Y1638808D02*
D03*
X1075182Y862584D02*
D03*
X897128Y558800D02*
D03*
X934720Y1174496D02*
D03*
X1443482Y1120140D02*
D03*
X1397508Y1293114D02*
D03*
X785114Y1285240D02*
D03*
X842518Y1295908D02*
D03*
X1430782Y1197102D02*
D03*
X753872Y1104392D02*
D03*
X1186180Y709930D02*
D03*
X1258316Y503936D02*
D03*
X1066800Y572008D02*
D03*
X1097280Y432562D02*
D03*
X1030986Y895858D02*
D03*
X961390Y1549146D02*
D03*
X1103630Y1270508D02*
D03*
X1234440Y959866D02*
D03*
X1207770Y860420D02*
D03*
X978530Y709930D02*
D03*
X1290320Y950976D02*
D03*
X1002284Y737870D02*
D03*
X1107948Y874268D02*
D03*
X890270Y1003300D02*
D03*
X881380Y1638808D02*
D03*
M02*
