M48
;Layer_Color=9474304
;FILE_FORMAT=4:4
METRIC,LZ
;TYPE=PLATED
T01F00S00C0.6350
T02F00S00C0.7000
T03F00S00C0.7112
T04F00S00C0.7620
T05F00S00C0.7800
T06F00S00C0.7900
T07F00S00C0.8000
T08F00S00C0.8500
T09F00S00C0.9000
T11F00S00C1.0500
T12F00S00C1.1000
T13F00S00C1.2300
T14F00S00C1.2500
T15F00S00C1.2700
T16F00S00C1.3000
T17F00S00C1.4000
%
T01
X0106172Y0179197
X0108712
X0111252
X0113792
X0116332
X0118872
X0121412
X0123952
X0126492
X0129032
X0131572
X0134112
T02
X0140208Y0065532
Y0073158
T03
X01258316Y00503936
X0109728Y00432562
X010668Y00572008
X00897128Y005588
X00903478Y0073914
X01002284Y0073787
X0097853Y0070993
X0118618
X00753872Y01104392
X0089027Y010033
X0099187Y0099695
X01030986Y00895858
X0106544Y009232
X01075182Y00862584
X01107948Y00874268
X0097028Y0083058
X0093472Y01174496
X0123444Y00959866
X0129032Y00950976
X0125222Y0086106
X0120777Y0086042
X01443482Y0112014
X01532465Y01081957
X01430782Y01197102
X01397508Y01293114
X0110363Y01270508
X0108712Y0127889
X00842518Y01295908
X0096139Y01549146
X00785114Y0128524
X0088138Y01638808
X00917072
T04
X014605Y005715
X0149606
X0149352Y0069215
X0145796
X0117475Y0074168
X0105918Y0102489
X0126873Y0102743
X0145796Y0080518
X0149352
X0155575Y0080391
X0159131
X0146939Y0122174
X0114681Y0155575
X0111125
X0073914Y0132334
T05
X0159639Y0061722
Y0064262
Y0066802
Y0069342
T06
X0106934Y0164592
X0109474
X0112014
X0114554
X0117094
Y0172372
X0114554
X0112014
X0109474
X0106934
X0119634
X0122174
X0124714
X0127254
X0129794
Y0164592
X0127254
X0124714
X0122174
X0119634
T07
X0077724Y0114078
Y0116078
Y0118078
X0079724
Y0116078
Y0114078
Y0120078
Y0122078
X0077724
Y0120078
X0077708Y0165926
Y0167926
Y0169926
Y0171926
Y0173926
X0075708
Y0171926
Y0169926
Y0167926
Y0165926
T08
X0090932Y01095058
X0093472
X0096012
X0098552
X0101092
X0103632
X0106172
X0108712
X0111252
X0113792
X0116332
X0118872
X0121412
X0123952
X0126492
X0129032
X0131572
X0134112
X0136652
X0139192
Y01249362
X0136652
X0134112
X0131572
X0129032
X0126492
X0123952
X0121412
X0118872
X0116332
X0113792
X0111252
X0108712
X0106172
X0103632
X0101092
X0098552
X0096012
X0093472
X0090932
T09
X0134493Y0084963
Y0087503
Y0090043
Y0092583
X0142113
Y0090043
Y0087503
Y0084963
T11
X0097051Y0043434
X0107927
X0134262Y013081
X0145138
T12
X0147995Y0161275
X0150495Y016129
X0152995Y0161275
Y0175775
X0147995
T13
X0079629Y0065913
Y0068453
Y0070993
T14
X0107188Y0131445
Y0133985
X0109728
X0112268
Y0131445
X0109728
T15
X009144Y0084455
Y0086995
X009906
Y0084455
T16
X0103124Y0030226
X0105664
X0108204
X0130048Y0030988
X0132588
X0135128
X0133985Y0101346
X0136525
X0139065
X0141605
X0144145
X0155829Y0112649
Y0115189
Y0117729
X0155448Y0130302
Y0132842
Y0135382
X0128397Y013208
X0125857
X0123317
X0120777
X0099314Y0132207
X0096774
X0094234
T17
X012827Y0042672
X0133604
Y0053086
X012827
Y00635
X0133604
X0133477Y0074041
X0128143
X0079121Y0055245
Y0049911
Y0081534
Y0086868
Y0097155
Y0102489
X0114554Y0101346
X0119888
M30
