G04*
G04 #@! TF.GenerationSoftware,Altium Limited,Altium Designer,24.4.1 (13)*
G04*
G04 Layer_Color=16711935*
%FSLAX44Y44*%
%MOMM*%
G71*
G04*
G04 #@! TF.SameCoordinates,E03DAD19-A1D4-479A-945F-AA05C0C5925B*
G04*
G04*
G04 #@! TF.FilePolarity,Negative*
G04*
G01*
G75*
%ADD23R,1.7032X1.7032*%
%ADD24C,1.7032*%
%ADD25C,1.3000*%
%ADD26R,1.3000X1.3000*%
%ADD27C,1.7272*%
%ADD28C,1.2000*%
%ADD29R,1.2000X1.2000*%
%ADD30R,1.6000X1.6000*%
%ADD31C,1.6000*%
%ADD32C,2.3032*%
%ADD33C,1.4912*%
%ADD34R,1.4912X1.4912*%
%ADD35R,2.0032X2.0032*%
%ADD36C,2.0032*%
%ADD37R,1.7272X1.7272*%
%ADD38R,2.0482X2.0482*%
%ADD39C,2.0482*%
%ADD40R,2.1082X2.1082*%
%ADD41C,2.1082*%
%ADD42C,1.9812*%
%ADD43R,1.9812X1.9812*%
%ADD44C,1.3932*%
%ADD45R,1.3932X1.3932*%
%ADD46R,1.8532X1.8532*%
%ADD47C,1.8532*%
%ADD48O,3.2032X6.2032*%
%ADD49R,2.0032X2.0032*%
%ADD50C,1.3500*%
%ADD51R,1.3500X1.3500*%
%ADD52C,1.9024*%
%ADD53R,1.9024X1.9024*%
%ADD54C,1.4732*%
D23*
X1344930Y925830D02*
D03*
D24*
Y900430D02*
D03*
Y875030D02*
D03*
Y849630D02*
D03*
X1421130Y925830D02*
D03*
Y900430D02*
D03*
Y875030D02*
D03*
Y849630D02*
D03*
D25*
X777080Y1739260D02*
D03*
Y1719260D02*
D03*
Y1699260D02*
D03*
Y1679260D02*
D03*
Y1659260D02*
D03*
X757080Y1739260D02*
D03*
Y1719260D02*
D03*
Y1699260D02*
D03*
Y1679260D02*
D03*
X797240Y1220780D02*
D03*
Y1200780D02*
D03*
Y1180780D02*
D03*
Y1160780D02*
D03*
Y1140780D02*
D03*
X777240Y1220780D02*
D03*
Y1200780D02*
D03*
Y1180780D02*
D03*
Y1160780D02*
D03*
D26*
X757080Y1659260D02*
D03*
X777240Y1140780D02*
D03*
D27*
X1174750Y741680D02*
D03*
X1496060Y571500D02*
D03*
X1460500D02*
D03*
X1493520Y692150D02*
D03*
X1457960D02*
D03*
X1059180Y1024890D02*
D03*
X1268730Y1027430D02*
D03*
X1146810Y1555750D02*
D03*
X1111250D02*
D03*
X1591310Y803910D02*
D03*
X1555750D02*
D03*
X739140Y1323340D02*
D03*
X1493520Y805180D02*
D03*
X1457960D02*
D03*
X1469390Y1221740D02*
D03*
D28*
X1402080Y731580D02*
D03*
D29*
Y655320D02*
D03*
D30*
X1342620Y1308100D02*
D03*
X1079270Y434340D02*
D03*
D31*
X1451380Y1308100D02*
D03*
X970510Y434340D02*
D03*
D32*
X1336040Y635000D02*
D03*
X1282700D02*
D03*
X1334770Y740410D02*
D03*
X1281430D02*
D03*
X1336040Y426720D02*
D03*
X1282700D02*
D03*
X1336040Y530860D02*
D03*
X1282700D02*
D03*
X791210Y499110D02*
D03*
Y552450D02*
D03*
Y815340D02*
D03*
Y868680D02*
D03*
Y971550D02*
D03*
Y1024890D02*
D03*
X1145540Y1013460D02*
D03*
X1198880D02*
D03*
D33*
X1596390Y693420D02*
D03*
Y668020D02*
D03*
Y642620D02*
D03*
D34*
Y617220D02*
D03*
D35*
X1031240Y302260D02*
D03*
X1300480Y309880D02*
D03*
X1441450Y1013460D02*
D03*
X1207770Y1320800D02*
D03*
X942340Y1322070D02*
D03*
D36*
X1056640Y302260D02*
D03*
X1082040D02*
D03*
X1325880Y309880D02*
D03*
X1351280D02*
D03*
X1558290Y1151890D02*
D03*
Y1177290D02*
D03*
X1554480Y1328420D02*
D03*
Y1303020D02*
D03*
X1390650Y1013460D02*
D03*
X1416050D02*
D03*
X1365250D02*
D03*
X1339850D02*
D03*
X1258570Y1320800D02*
D03*
X1233170D02*
D03*
X1283970D02*
D03*
X967740Y1322070D02*
D03*
X993140D02*
D03*
D37*
X1572260Y548600D02*
D03*
Y228600D02*
D03*
D38*
X796290Y659130D02*
D03*
D39*
Y684530D02*
D03*
Y709930D02*
D03*
D40*
X990600Y844550D02*
D03*
D41*
Y869950D02*
D03*
X914400D02*
D03*
Y844550D02*
D03*
D42*
X1214120Y1791970D02*
D03*
X1239520D02*
D03*
X1264920D02*
D03*
X1290320D02*
D03*
X1315720D02*
D03*
X1341120D02*
D03*
X1188720D02*
D03*
X1163320D02*
D03*
X1137920D02*
D03*
X1112520D02*
D03*
X1087120D02*
D03*
D43*
X1061720D02*
D03*
D44*
X1069340Y1723720D02*
D03*
X1094740D02*
D03*
X1120140D02*
D03*
X1145540D02*
D03*
X1170940D02*
D03*
X1196340D02*
D03*
X1221740D02*
D03*
X1247140D02*
D03*
X1272540D02*
D03*
X1297940D02*
D03*
Y1645920D02*
D03*
X1272540D02*
D03*
X1247140D02*
D03*
X1221740D02*
D03*
X1196340D02*
D03*
X1170940D02*
D03*
X1145540D02*
D03*
X1120140D02*
D03*
X1094740D02*
D03*
D45*
X1069340D02*
D03*
D46*
X1529950Y1612750D02*
D03*
D47*
X1479950D02*
D03*
X1529950Y1757750D02*
D03*
X1504950Y1612900D02*
D03*
X1479950Y1757750D02*
D03*
D48*
X1561950Y1682750D02*
D03*
X1447950D02*
D03*
D49*
X1558290Y1126490D02*
D03*
X1554480Y1353820D02*
D03*
D50*
X909320Y1249362D02*
D03*
X934720D02*
D03*
X960120D02*
D03*
X985520D02*
D03*
X1010920D02*
D03*
X1036320D02*
D03*
X1061720D02*
D03*
X1087120D02*
D03*
X1112520D02*
D03*
X1137920D02*
D03*
X1163320D02*
D03*
X1188720D02*
D03*
X1214120D02*
D03*
X1239520D02*
D03*
X1264920D02*
D03*
X1290320D02*
D03*
X1315720D02*
D03*
X1341120D02*
D03*
X1366520D02*
D03*
X1391920D02*
D03*
Y1095058D02*
D03*
X1366520D02*
D03*
X1341120D02*
D03*
X1315720D02*
D03*
X1290320D02*
D03*
X1264920D02*
D03*
X1239520D02*
D03*
X1214120D02*
D03*
X1188720D02*
D03*
X1163320D02*
D03*
X1137920D02*
D03*
X1112520D02*
D03*
X1087120D02*
D03*
X1061720D02*
D03*
X1036320D02*
D03*
X1010920D02*
D03*
X985520D02*
D03*
X960120D02*
D03*
X934720D02*
D03*
D51*
X909320D02*
D03*
D52*
X1122680Y1339850D02*
D03*
X1097280D02*
D03*
X1071880Y1314450D02*
D03*
X1097280D02*
D03*
X1122680D02*
D03*
D53*
X1071880Y1339850D02*
D03*
D54*
X991870Y996950D02*
D03*
X1065440Y923200D02*
D03*
X1087120Y1278890D02*
D03*
X1252220Y861060D02*
D03*
X970280Y830580D02*
D03*
X903478Y739140D02*
D03*
X1532465Y1081957D02*
D03*
X917072Y1638808D02*
D03*
X1075182Y862584D02*
D03*
X897128Y558800D02*
D03*
X934720Y1174496D02*
D03*
X1443482Y1120140D02*
D03*
X1397508Y1293114D02*
D03*
X785114Y1285240D02*
D03*
X842518Y1295908D02*
D03*
X1430782Y1197102D02*
D03*
X753872Y1104392D02*
D03*
X1186180Y709930D02*
D03*
X1258316Y503936D02*
D03*
X1066800Y572008D02*
D03*
X1097280Y432562D02*
D03*
X1030986Y895858D02*
D03*
X961390Y1549146D02*
D03*
X1103630Y1270508D02*
D03*
X1234440Y959866D02*
D03*
X1207770Y860420D02*
D03*
X978530Y709930D02*
D03*
X1290320Y950976D02*
D03*
X1002284Y737870D02*
D03*
X1107948Y874268D02*
D03*
X890270Y1003300D02*
D03*
X881380Y1638808D02*
D03*
M02*
